<?xml version="1.0" encoding="utf-8"?>
<!-- Generator: Adobe Illustrator 24.1.1, SVG Export Plug-In . SVG Version: 6.00 Build 0)  -->
<svg version="1.1" id="Layer_1" xmlns="http://www.w3.org/2000/svg" xmlns:xlink="http://www.w3.org/1999/xlink" x="0px" y="0px"
	 viewBox="0 0 2322.8 1103.51" style="enable-background:new 0 0 2322.8 1103.51;" xml:space="preserve">
<style type="text/css">
	.st0{fill:none;}
	.st1{fill:#231F20;}
	.st2{fill:#39BB9D;}
	.st3{fill:#FFFFFF;}
</style>
<g>
	<g>
		<path class="st1" d="M2243.66,1103.51H79.14c-43.71,0-79.14-35.43-79.14-79.14V79.14C0,35.43,35.43,0,79.14,0h2164.52
			c43.71,0,79.14,35.43,79.14,79.14v945.23C2322.8,1068.08,2287.37,1103.51,2243.66,1103.51z"/>
	</g>
	<g>
		<g>
			<path class="st0" d="M487.49,0c26.78,3.17,49.03,12.06,66.7,26.39c28.95,23.1,43.27,53.88,42.22,94.31
				c-1.07,52.44-20.28,81.14-51.76,113.83c-26.83,27.92-70.47,44.12-103.37,44.12c-22.34,0-36.3-5.37-60.18-15.56
				c-24.89-10.81-37-23.03-52.75-39.85c-29.58-31.81-42.78-68.21-42.78-106.85c0-31.44,7.6-57.32,22.82-77.66
				c12.51-16.53,27.52-24.72,45.17-24.72c9.65,0,17.78,3.2,24.44,9.27c6.5,6.03,9.85,13.5,9.85,22.19c0,8.71-3.58,16.33-10.45,22.66
				c-6.94,6.29-15.19,9.46-24.61,9.46c-9.91,0-20.34-4.97-31.32-14.75c-1.78-1.46-3.96-2.26-6.52-2.26
				c-12.16,0-17.27,18.91-18.19,56.27c-1.06,38.63,9.04,61.65,26.17,76.69c18.41,15.96,55.71,17.5,107.86,17.5h33.62
				c37.9,0,65.51-0.87,84.74-9.81c23.99-10.84,37.32-37.36,37.32-75.33c0-31.33-8.59-56.94-25.83-77.09
				c-17.37-20.13-41.66-32.95-73.15-38.64V0z"/>
		</g>
		<g>
			<path class="st0" d="M487.49,1103.51c26.78-3.17,49.03-12.06,66.7-26.39c28.95-23.1,43.27-53.88,42.22-94.31
				c-1.07-52.44-20.28-81.14-51.76-113.83c-26.83-27.92-70.47-44.12-103.37-44.12c-22.34,0-36.3,5.37-60.18,15.56
				c-24.89,10.81-37,23.03-52.75,39.85c-29.58,31.81-42.78,68.21-42.78,106.85c0,31.44,7.6,57.32,22.82,77.66
				c12.51,16.53,27.52,24.72,45.17,24.72c9.65,0,17.78-3.2,24.44-9.27c6.5-6.03,9.85-13.5,9.85-22.19c0-8.71-3.58-16.33-10.45-22.66
				c-6.94-6.29-15.19-9.46-24.61-9.46c-9.91,0-20.34,4.97-31.32,14.75c-1.78,1.46-3.96,2.26-6.52,2.26
				c-12.16,0-17.27-18.91-18.19-56.27c-1.06-38.63,9.04-61.65,26.17-76.69c18.41-15.96,55.71-17.5,107.86-17.5h33.62
				c37.9,0,65.51,0.87,84.74,9.81c23.99,10.84,37.32,37.36,37.32,75.33c0,31.33-8.59,56.94-25.83,77.09
				c-17.37,20.13-41.66,32.95-73.15,38.64V1103.51z"/>
		</g>
		<g>
			<path class="st0" d="M0,488.59c3.17,26.78,12.06,49.03,26.39,66.7c23.1,28.95,53.88,43.27,94.31,42.22
				c52.44-1.07,81.14-20.28,113.83-51.76c27.92-26.83,44.12-70.47,44.12-103.37c0-22.34-5.37-36.3-15.56-60.18
				c-10.81-24.89-23.03-37-39.85-52.75c-31.81-29.58-68.21-42.78-106.85-42.78c-31.44,0-57.32,7.6-77.66,22.82
				c-16.53,12.51-24.72,27.52-24.72,45.17c0,9.65,3.2,17.78,9.27,24.44c6.03,6.5,13.5,9.85,22.19,9.85
				c8.71,0,16.33-3.58,22.66-10.45c6.29-6.94,9.46-15.19,9.46-24.61c0-9.91-4.97-20.34-14.75-31.32c-1.46-1.78-2.26-3.96-2.26-6.52
				c0-12.16,18.91-17.27,56.27-18.19c38.63-1.06,61.65,9.04,76.69,26.17c15.96,18.41,17.5,55.71,17.5,107.86l0,33.62
				c0,37.9-0.87,65.51-9.81,84.74c-10.84,23.99-37.36,37.32-75.33,37.32c-31.33,0-56.94-8.59-77.09-25.83
				c-20.13-17.37-32.95-41.66-38.64-73.15H0z"/>
		</g>
		<g>
			<path class="st0" d="M2322.8,488.59c-3.17,26.78-12.06,49.03-26.39,66.7c-23.1,28.95-53.88,43.27-94.31,42.22
				c-52.44-1.07-81.14-20.28-113.83-51.76c-27.92-26.83-44.13-70.47-44.13-103.37c0-22.34,5.37-36.3,15.56-60.18
				c10.81-24.89,23.03-37,39.85-52.75c31.81-29.58,68.21-42.78,106.85-42.78c31.44,0,57.32,7.6,77.66,22.82
				c16.53,12.51,24.72,27.52,24.72,45.17c0,9.65-3.2,17.78-9.27,24.44c-6.03,6.5-13.5,9.85-22.19,9.85
				c-8.71,0-16.33-3.58-22.66-10.45c-6.29-6.94-9.46-15.19-9.46-24.61c0-9.91,4.97-20.34,14.75-31.32c1.46-1.78,2.26-3.96,2.26-6.52
				c0-12.16-18.91-17.27-56.27-18.19c-38.63-1.06-61.65,9.04-76.69,26.17c-15.96,18.41-17.5,55.71-17.5,107.86l0,33.62
				c0,37.9,0.87,65.51,9.81,84.74c10.84,23.99,37.36,37.32,75.33,37.32c31.33,0,56.94-8.59,77.09-25.83
				c20.13-17.37,32.95-41.66,38.64-73.15H2322.8z"/>
		</g>
	</g>
	<g>
		<g>
			<g>
				<g>
					<path class="st3" d="M557.33,480.58c-3.17,26.78-12.06,49.03-26.39,66.7c-23.1,28.95-53.88,43.27-94.31,42.22
						c-52.44-1.07-81.14-20.28-113.83-51.76c-27.92-26.83-44.12-70.47-44.12-103.37c0-22.34,5.37-36.3,15.56-60.18
						c10.81-24.89,23.03-37,39.85-52.75c31.81-29.58,68.21-42.78,106.85-42.78c31.44,0,57.32,7.6,77.66,22.82
						c16.53,12.51,24.72,27.52,24.72,45.17c0,9.65-3.2,17.78-9.27,24.44c-6.03,6.5-13.5,9.85-22.19,9.85
						c-8.71,0-16.33-3.58-22.66-10.45c-6.29-6.94-9.46-15.19-9.46-24.61c0-9.91,4.97-20.34,14.75-31.32
						c1.46-1.78,2.26-3.96,2.26-6.52c0-12.16-18.91-17.27-56.27-18.19c-38.63-1.06-61.65,9.04-76.69,26.17
						c-15.96,18.41-17.5,55.71-17.5,107.86v33.62c0,37.9,0.87,65.51,9.81,84.74c10.84,23.99,37.36,37.32,75.33,37.32
						c31.33,0,56.94-8.59,77.09-25.83c20.13-17.37,32.95-41.66,38.64-73.15H557.33z"/>
				</g>
				<g>
					<path class="st3" d="M687.5,364c4.45-17.84,10.92-32.93,19.5-45.55c18.19-26.21,41.28-39.26,68.77-39.26
						c14.57,0,26.33,3.86,35.13,11.55c8.76,7.68,13.21,17.76,13.21,30.42c0,9.73-2.73,17.68-8.32,23.93
						c-5.52,6.17-12.76,9.22-21.62,9.22c-9.07,0-16.49-3.01-22.25-9.08c-5.7-6.03-8.54-13.75-8.54-23.19
						c0-11.2,5.43-20.78,16.39-28.79c-0.4-1.86-35.63,5.48-52.5,22.25c-8.43,7.98-14.7,15.73-19.05,23.51
						c-4.19,7.64-8.53,19.09-13.32,34.33c-4.91,15.33-7.4,37.53-7.4,66.61v128.57h62.9v12.21H573.74v-12.21h55.58V304.17h-55.58
						v-12.22h71.29c19.44,0,33.74-6.32,42.46-19.08V364z"/>
				</g>
				<path class="st3" d="M974.69,275.91c33.03,0,64.89,13.11,95.17,39.06c37.45,32.14,56.15,70.89,56.15,116.43
					c0,41.73-15.88,78.65-47.55,110.76c-31.12,31.32-66.64,47.06-106.67,47.06c-42.18,0-79.05-16.04-110.82-48.17
					c-14.9-15-26.8-32.2-35.32-51.24c-8.71-19.04-12.98-37.74-12.98-56.33c0-20.7,5.35-41.3,15.84-61.99
					c10.56-20.68,25.15-38.76,43.45-54.37C904.43,289.7,938.78,275.91,974.69,275.91 M1059.74,485.93V381.96
					c0-21.39-1.23-36.59-3.49-45.64c-2.08-8.91-6.92-17.35-14.23-25.23c-16.07-16.28-38.99-24.42-68.8-24.42
					c-31.93,0-55.65,7.68-70.63,22.92c-15.25,15.39-22.88,39.06-22.88,71.36v103.09c0,34.95,7.66,59.65,22.94,74.18
					c5.76,5.75,15.74,10.66,29.07,14.4c13.61,3.9,27.56,5.96,41.86,5.96c16,0,30.44-2.4,43.27-7.02
					c12.87-4.73,22.17-11.26,28.13-19.51C1054.71,538.3,1059.74,516.15,1059.74,485.93"/>
				<g>
					<path class="st3" d="M1238.87,352.5c6.83-22.09,20.59-40.25,41.22-54.34c20.68-14.07,43.96-21.07,69.94-21.07
						c33.93,0,59.26,10.5,75.74,31.62c8.44,10.97,13.84,26.82,16.32,47.76c8.48-24.68,22.24-43.94,41.5-57.94
						c19.07-13.99,41.58-20.8,67.24-20.8c32.88,0,58.38,9.93,75.99,30.16c7.99,9.13,13.23,19.14,15.75,29.68
						c2.42,10.7,3.6,28.3,3.6,53.05v177.91h55.75v12.21H1530.2v-12.21h56.2V349.08c0-38.47-16.23-57.69-48.7-57.69
						c-30.44,0-55.45,14.97-75.22,44.92c-13.67,20.79-20.39,38.6-20.39,53.43v178.78h55.07v12.21h-170.51v-12.21h57.16v-230.3
						c0-15.41-3.78-27.13-11.38-35.54c-7.99-8.98-19.16-13.37-33.18-13.37c-21.77,0-42.39,8.28-61.51,24.98
						c-19.12,16.77-31.99,37.6-38.88,63.07v191.15h54.78v12.21h-168.71v-12.21h55.6V304.18h-55.6v-12.22h69.73
						c23.44,0.29,38.09-6.32,44.2-19.68V352.5z"/>
				</g>
				<g>
					<g>
						<path class="st3" d="M1920.13,412.63v-71.15c0-16.48-2.34-28.25-7-35.54c-4.6-7.19-13.24-12.31-25.89-15.59
							c-10-2.42-22.98-3.78-38.94-3.78c-24.16,0-43.18,3.54-56.84,10.63c-12.79,6.87-19.06,14.81-19.06,24.16
							c0,3.81,2.63,7.87,7.89,12.03c9.8,7.51,14.84,16.31,14.84,26.19c0,9.51-2.85,17.29-8.4,23.23
							c-5.71,6.03-12.89,8.94-21.84,8.94c-9.38,0-17.12-3.33-23.2-9.97c-5.98-6.81-9.13-15.32-9.13-25.81
							c0-22.18,11.36-41.16,34.01-57.07c22.5-16.04,49.39-23.86,80.41-23.86c36.59,0,75.69,6.28,104.05,24.27
							c15.82,9.62,21.2,18.33,25.29,27.34c3.98,8.81,5.4,20.18,5.4,35.31v128.12c1.01,36.63,3.63,57.84,4.8,63.68
							c2.61,12.31,11.43,17.62,22.1,17.02c11.02-0.89,17.13-6.39,23.89-29.54h11.61c-11.49,41.43-30.49,46.31-56.97,46.47
							c-17.77,0.09-35.46-5.75-45.52-14c-10.17-8.26-16.46-19.95-18.97-35.39c-9.55,15.83-23.79,27.93-42.81,36.44
							c-18.93,8.72-36.79,12.95-62.02,12.95c-35.84,0-62.59-7.6-80.09-22.67c-16.38-14.35-24.65-31.02-24.65-49.73
							c0-15.74,5.76-31.38,17.54-46.53c11.62-15.17,26.27-26.18,43.73-32.79c18.46-7.08,36.63-12.62,63.43-16.95
							c26.85-4.3,52.74-6.39,77.73-6.39H1920.13z M1920.13,423.89h-4.59c-61.36,0-102,7.59-122.34,22.65
							c-13.2,10.13-19.79,28.3-19.79,54.87c0,25.28,4.5,43.2,13.35,53.82c9.08,10.51,24.14,15.75,45.62,15.75
							c19.71,0,37.65-4.49,53.74-13.75c16.02-9.29,27.28-21.35,34.01-36.31V423.89z"/>
					</g>
				</g>
				<rect x="1749.11" y="195.44" class="st2" width="227.22" height="31.49"/>
			</g>
		</g>
		<g>
			<g>
				<g>
					<g>
						<g>
							<g>
								<g>
									<path class="st3" d="M317.84,782.01l-12.42,40.52h-26.76l45.76-142.95h33.35l46.38,142.95h-27.97l-12.9-40.52H317.84z
										 M358.79,762.27l-11.23-35.21c-2.82-8.72-5.16-18.44-7.2-26.76h-0.46c-2.2,8.32-4.23,18.23-6.85,26.76l-10.94,35.21H358.79
										z"/>
									<path class="st3" d="M1206.61,759.06h-53.85v41.99h60.25v21.48h-86.37V679.58h83.25v21.36h-57.13v36.98h53.85V759.06z"/>
									<path class="st3" d="M1234.95,749.93c0-11.92-0.27-21.84-0.95-30.7h22.9l1.36,15.47h0.6c4.47-8.08,15.71-17.84,32.82-17.84
										c17.96,0,36.68,11.68,36.68,44.39v61.29h-26v-58.38c0-14.76-5.52-26.15-19.79-26.15c-10.31,0-17.6,7.49-20.26,15.35
										c-0.97,2.32-1.21,5.54-1.21,8.49v60.69h-26.15V749.93z"/>
									<path class="st3" d="M1385.06,692.64v26.58h24.93v19.5h-24.93v45.55c0,12.59,3.33,19.19,13.34,19.19
										c4.96,0,7.22-0.44,10.3-1.33l0.2,19.93c-3.66,1.48-10.5,2.77-18.83,2.77c-9.44,0-17.71-3.45-22.34-8.67
										c-5.64-5.95-8.1-15.28-8.1-28.81v-48.64h-14.93v-19.5h14.93v-19.12L1385.06,692.64z"/>
									<path class="st3" d="M1446.78,778.17c0.62,18.7,15.38,26.78,31.85,26.78c12.03,0,20.72-1.69,28.72-4.84l3.74,18.23
										c-8.86,3.49-21.19,6.52-35.99,6.52c-33.59,0-53.29-20.75-53.29-52.34c0-28.69,17.37-55.66,50.45-55.66
										c33.71,0,44.59,27.69,44.59,50.29c0,4.86-0.54,8.68-0.81,11.03H1446.78z M1492.25,759.96c0.16-9.56-4.11-25.27-21.53-25.27
										c-16.04,0-22.82,14.69-23.94,25.27H1492.25z"/>
									<path class="st3" d="M1537.82,752.44c0-13.98-0.18-23.91-0.92-33.22h22.71l0.87,19.66h0.89
										c5.05-14.63,17.21-22.04,28.25-22.04c2.44,0,4.08,0.19,6.09,0.64v24.59c-2.01-0.35-4.43-0.81-7.7-0.81
										c-12.47,0-21.02,8.12-23.32,19.78c-0.43,2.28-0.83,5.01-0.83,8.03v53.46h-26.05V752.44z"/>
									<path class="st3" d="M1613.32,753.63c0-13.72-0.45-24.67-0.88-34.4h22.88l1.24,15.84h0.51
										c7.62-11.61,19.84-18.22,35.47-18.22c23.67,0,43.51,20.36,43.51,52.58c0,37.32-23.62,55.41-47.18,55.41
										c-12.88,0-23.8-5.46-29.02-13.82h-0.47v53.45h-26.06V753.63z M1639.37,779.25c0,2.63,0.3,4.83,0.96,7.19
										c2.46,10.67,11.83,18.26,22.86,18.26c16.42,0,26.3-13.76,26.3-34.11c0-18.42-8.96-33.21-25.68-33.21
										c-10.85,0-20.79,7.88-23.35,19.45c-0.63,2.07-1.1,4.41-1.1,6.5V779.25z"/>
									<path class="st3" d="M1737.35,752.44c0-13.98-0.13-23.91-0.75-33.22h22.67l0.79,19.66h0.86
										c5.15-14.63,17.21-22.04,28.3-22.04c2.47,0,3.95,0.19,6.17,0.64v24.59c-2.22-0.35-4.54-0.81-7.61-0.81
										c-12.62,0-21.09,8.12-23.43,19.78c-0.35,2.28-0.77,5.01-0.77,8.03v53.46h-26.24V752.44z"/>
									<path class="st3" d="M1840.8,690.42c0,7.81-5.79,13.9-14.88,13.9c-8.82,0-14.49-6.09-14.49-13.9
										c0-8.15,5.97-14.27,14.57-14.27C1835.02,676.15,1840.62,682.26,1840.8,690.42z M1812.88,822.53v-103.3h26.28v103.3H1812.88
										z"/>
									<path class="st3" d="M1865.99,798.49c5.89,3.66,17.16,7.49,26.39,7.49c11.55,0,16.65-4.69,16.65-11.47
										c0-6.98-4.23-10.63-17.01-15.02c-20.15-6.99-28.62-18.09-28.45-30.11c0-18.26,15.17-32.54,39.08-32.54
										c11.41,0,21.52,2.96,27.42,6.21l-5.1,18.39c-4.53-2.57-12.88-5.92-21.87-5.92c-9.32,0-14.38,4.38-14.38,10.82
										c0,6.57,4.92,9.79,18.02,14.45c18.8,6.74,27.33,16.36,27.51,31.56c0,18.65-14.6,32.47-41.94,32.47
										c-12.51,0-23.83-3.18-31.38-7.45L1865.99,798.49z"/>
									<path class="st3" d="M1974.32,778.17c0.47,18.7,15.15,26.78,31.73,26.78c11.89,0,20.75-1.69,28.66-4.84l3.75,18.23
										c-8.96,3.49-21.13,6.52-36.05,6.52c-33.63,0-53.23-20.75-53.23-52.34c0-28.69,17.45-55.66,50.45-55.66
										c33.71,0,44.51,27.69,44.51,50.29c0,4.86-0.3,8.68-0.7,11.03H1974.32z M2019.49,759.96c0.24-9.56-3.94-25.27-21.37-25.27
										c-16.16,0-22.93,14.69-23.8,25.27H2019.49z"/>
								</g>
								<g>
									<g>
										<g>
											<path class="st3" d="M892.51,681.52H746.57v41.79h42.38v100.25h61.08V723.31h42.49V681.52z"/>
										</g>
									</g>
									<polygon class="st3" points="991.5,681.52 928.86,681.52 878.71,803.47 870.34,823.56 929.06,823.56 961.09,739.03 
										991.28,823.56 1051.13,823.56 									"/>
									<g>
										<g>
											<path class="st3" d="M601.94,681.52H455.99v41.79h42.21v100.25h61.26V723.31h42.48V681.52z"/>
										</g>
									</g>
									<polygon class="st3" points="700.97,681.52 638.18,681.52 588.15,803.47 579.79,823.56 638.5,823.56 670.51,739.03 
										700.63,823.56 760.56,823.56 									"/>
								</g>
							</g>
						</g>
					</g>
				</g>
			</g>
		</g>
	</g>
</g>
</svg>
