<svg width="121" height="72" viewBox="0 0 121 72" fill="none" xmlns="http://www.w3.org/2000/svg">
<path d="M7.41371 49.18C7.41371 50.4674 7.70292 51.503 8.28133 52.2866C8.85975 53.0703 9.71804 53.4621 10.8562 53.4621C11.2294 53.4621 11.5746 53.4528 11.8918 53.4341C12.2089 53.3968 12.4702 53.3595 12.6754 53.3222V45.7375C12.4142 45.5696 12.069 45.4296 11.6399 45.3177C11.2294 45.2057 10.8096 45.1497 10.3804 45.1497C8.40261 45.1497 7.41371 46.4932 7.41371 49.18ZM16.8456 56.1769C16.4724 56.2889 16.0433 56.4008 15.5581 56.5128C15.073 56.6061 14.5599 56.69 14.0188 56.7647C13.4964 56.8393 12.9553 56.8953 12.3955 56.9326C11.8544 56.9886 11.332 57.0166 10.8282 57.0166C9.61542 57.0166 8.53322 56.8393 7.58164 56.4848C6.63006 56.1303 5.82774 55.6265 5.17469 54.9734C4.52165 54.3017 4.01787 53.4994 3.66336 52.5665C3.3275 51.6149 3.15958 50.5514 3.15958 49.3759C3.15958 48.1818 3.30884 47.1089 3.60738 46.1573C3.90592 45.1871 4.33506 44.3661 4.89482 43.6944C5.45457 43.0227 6.13561 42.5096 6.93792 42.1551C7.7589 41.8005 8.69182 41.6233 9.7367 41.6233C10.3151 41.6233 10.8282 41.6793 11.276 41.7912C11.7425 41.9032 12.2089 42.0618 12.6754 42.267V35.6059L16.8456 34.9342V56.1769ZM24.9205 56.6527H20.7503V41.9312H24.9205V56.6527ZM25.3123 37.677C25.3123 38.442 25.0604 39.0484 24.5566 39.4962C24.0715 39.9254 23.4931 40.1399 22.8214 40.1399C22.1497 40.1399 21.562 39.9254 21.0582 39.4962C20.5731 39.0484 20.3305 38.442 20.3305 37.677C20.3305 36.912 20.5731 36.315 21.0582 35.8858C21.562 35.438 22.1497 35.2141 22.8214 35.2141C23.4931 35.2141 24.0715 35.438 24.5566 35.8858C25.0604 36.315 25.3123 36.912 25.3123 37.677ZM32.395 48.8161C32.395 51.1485 33.3372 52.3146 35.2217 52.3146C35.6509 52.3146 36.052 52.2586 36.4252 52.1467C36.7984 52.0347 37.1156 51.9041 37.3768 51.7549V45.0938C37.1715 45.0565 36.929 45.0285 36.6491 45.0098C36.3692 44.9725 36.0427 44.9538 35.6695 44.9538C34.5687 44.9538 33.7477 45.3177 33.2066 46.0454C32.6655 46.773 32.395 47.6966 32.395 48.8161ZM41.547 54.8055C41.547 57.2125 40.9312 58.9944 39.6998 60.1512C38.487 61.3267 36.6025 61.9144 34.0462 61.9144C33.1506 61.9144 32.255 61.8304 31.3594 61.6625C30.4638 61.5133 29.6335 61.308 28.8685 61.0468L29.5962 57.5483C30.2492 57.8095 30.9303 58.0148 31.6393 58.1641C32.367 58.3133 33.1879 58.388 34.1022 58.388C35.2964 58.388 36.136 58.1267 36.6211 57.6043C37.1249 57.0819 37.3768 56.4102 37.3768 55.5892V55.0574C36.929 55.2627 36.4625 55.4213 35.9774 55.5332C35.5109 55.6265 34.9978 55.6731 34.4381 55.6731C32.4043 55.6731 30.8463 55.0761 29.7641 53.8819C28.6819 52.6691 28.1408 50.9805 28.1408 48.8161C28.1408 47.734 28.3087 46.7544 28.6446 45.8774C28.9805 44.9818 29.4656 44.2168 30.1 43.5824C30.753 42.948 31.546 42.4629 32.4789 42.1271C33.4118 41.7726 34.4661 41.5953 35.6415 41.5953C36.1453 41.5953 36.6584 41.6233 37.1809 41.6793C37.722 41.7166 38.2537 41.7726 38.7762 41.8472C39.2986 41.9218 39.7931 42.0151 40.2595 42.1271C40.7446 42.2204 41.1738 42.323 41.547 42.4349V54.8055ZM49.6284 56.6527H45.4582V41.9312H49.6284V56.6527ZM50.0202 37.677C50.0202 38.442 49.7684 39.0484 49.2646 39.4962C48.7795 39.9254 48.201 40.1399 47.5293 40.1399C46.8576 40.1399 46.2699 39.9254 45.7661 39.4962C45.281 39.0484 45.0384 38.442 45.0384 37.677C45.0384 36.912 45.281 36.315 45.7661 35.8858C46.2699 35.438 46.8576 35.2141 47.5293 35.2141C48.201 35.2141 48.7795 35.438 49.2646 35.8858C49.7684 36.315 50.0202 36.912 50.0202 37.677Z" fill="#FF9500"/>
<path d="M59.174 53.742C59.5845 53.742 59.9763 53.7327 60.3495 53.714C60.7226 53.6953 61.0212 53.6674 61.2451 53.63V50.4674C61.0772 50.4301 60.8253 50.3928 60.4894 50.3555C60.1536 50.3182 59.8457 50.2995 59.5658 50.2995C59.174 50.2995 58.8008 50.3275 58.4463 50.3835C58.1105 50.4208 57.8119 50.5047 57.5507 50.6353C57.2895 50.766 57.0842 50.9432 56.935 51.1671C56.7857 51.391 56.7111 51.6709 56.7111 52.0067C56.7111 52.6598 56.9256 53.1169 57.3548 53.3781C57.8026 53.6207 58.409 53.742 59.174 53.742ZM58.8381 41.5393C60.0696 41.5393 61.0958 41.6793 61.9168 41.9591C62.7378 42.239 63.3908 42.6402 63.8759 43.1626C64.3797 43.6851 64.7342 44.3194 64.9395 45.0658C65.1447 45.8121 65.2473 46.6424 65.2473 47.5567V56.2329C64.6503 56.3635 63.82 56.5128 62.7564 56.6807C61.6929 56.8673 60.4054 56.9606 58.8941 56.9606C57.9425 56.9606 57.0749 56.8766 56.2912 56.7087C55.5262 56.5408 54.8639 56.2702 54.3041 55.897C53.7444 55.5052 53.3152 55.0014 53.0167 54.3857C52.7181 53.77 52.5689 53.0143 52.5689 52.1187C52.5689 51.2604 52.7368 50.5327 53.0727 49.9357C53.4272 49.3386 53.8936 48.8628 54.472 48.5083C55.0505 48.1538 55.7128 47.9019 56.4592 47.7526C57.2055 47.5847 57.9798 47.5007 58.7822 47.5007C59.3233 47.5007 59.799 47.5287 60.2095 47.5847C60.6387 47.622 60.9839 47.678 61.2451 47.7526V47.3608C61.2451 46.6518 61.0305 46.0827 60.6014 45.6535C60.1722 45.2244 59.4259 45.0098 58.3623 45.0098C57.6533 45.0098 56.9536 45.0658 56.2633 45.1777C55.5729 45.271 54.9758 45.411 54.472 45.5976L53.9403 42.239C54.1828 42.1644 54.4814 42.0898 54.8359 42.0151C55.2091 41.9218 55.6102 41.8472 56.0394 41.7912C56.4685 41.7166 56.9163 41.6606 57.3828 41.6233C57.8679 41.5673 58.353 41.5393 58.8381 41.5393ZM68.3185 49.2919C68.3185 48.2284 68.4865 47.2302 68.8223 46.2972C69.1768 45.3457 69.6806 44.5247 70.3337 43.8343C70.9867 43.1253 71.7797 42.5655 72.7126 42.1551C73.6455 41.7446 74.7091 41.5393 75.9032 41.5393C76.6869 41.5393 77.4052 41.614 78.0583 41.7632C78.7113 41.8938 79.3457 42.0898 79.9614 42.351L79.0938 45.6815C78.702 45.5322 78.2729 45.4016 77.8064 45.2897C77.3399 45.1777 76.8175 45.1218 76.2391 45.1218C75.0076 45.1218 74.084 45.5043 73.4683 46.2693C72.8712 47.0343 72.5727 48.0418 72.5727 49.2919C72.5727 50.6167 72.8526 51.6429 73.4123 52.3706C73.9907 53.0983 74.989 53.4621 76.407 53.4621C76.9108 53.4621 77.4519 53.4155 78.0303 53.3222C78.6087 53.2289 79.1405 53.0796 79.6256 52.8744L80.2133 56.2889C79.7282 56.4941 79.1218 56.6714 78.3941 56.8206C77.6665 56.9699 76.8641 57.0445 75.9872 57.0445C74.6438 57.0445 73.4869 56.8486 72.5167 56.4568C71.5465 56.0463 70.7442 55.4959 70.1098 54.8055C69.494 54.1152 69.0369 53.3035 68.7384 52.3706C68.4585 51.419 68.3185 50.3928 68.3185 49.2919ZM81.6018 49.2919C81.6018 48.2284 81.7697 47.2302 82.1056 46.2972C82.4601 45.3457 82.9639 44.5247 83.6169 43.8343C84.27 43.1253 85.0629 42.5655 85.9959 42.1551C86.9288 41.7446 87.9923 41.5393 89.1865 41.5393C89.9701 41.5393 90.6885 41.614 91.3415 41.7632C91.9946 41.8938 92.629 42.0898 93.2447 42.351L92.3771 45.6815C91.9852 45.5322 91.5561 45.4016 91.0896 45.2897C90.6232 45.1777 90.1007 45.1218 89.5223 45.1218C88.2909 45.1218 87.3673 45.5043 86.7515 46.2693C86.1545 47.0343 85.8559 48.0418 85.8559 49.2919C85.8559 50.6167 86.1358 51.6429 86.6956 52.3706C87.274 53.0983 88.2722 53.4621 89.6903 53.4621C90.194 53.4621 90.7351 53.4155 91.3135 53.3222C91.892 53.2289 92.4237 53.0796 92.9088 52.8744L93.4966 56.2889C93.0115 56.4941 92.4051 56.6714 91.6774 56.8206C90.9497 56.9699 90.1474 57.0445 89.2704 57.0445C87.927 57.0445 86.7702 56.8486 85.8 56.4568C84.8297 56.0463 84.0274 55.4959 83.393 54.8055C82.7773 54.1152 82.3201 53.3035 82.0216 52.3706C81.7417 51.419 81.6018 50.3928 81.6018 49.2919ZM94.885 49.4039C94.885 48.0978 95.0809 46.9596 95.4728 45.9894C95.8833 45.0005 96.415 44.1795 97.0681 43.5265C97.7211 42.8734 98.4675 42.379 99.3071 42.0431C100.165 41.7073 101.042 41.5393 101.938 41.5393C104.028 41.5393 105.679 42.183 106.892 43.4705C108.105 44.7393 108.711 46.6144 108.711 49.096C108.711 49.3386 108.702 49.6091 108.683 49.9077C108.664 50.1875 108.646 50.4394 108.627 50.6633H99.1672C99.2604 51.5216 99.6616 52.2027 100.371 52.7064C101.08 53.2102 102.031 53.4621 103.225 53.4621C103.99 53.4621 104.737 53.3968 105.464 53.2662C106.211 53.1169 106.817 52.9397 107.284 52.7344L107.843 56.1209C107.619 56.2329 107.321 56.3448 106.948 56.4568C106.575 56.5687 106.155 56.662 105.688 56.7367C105.24 56.83 104.755 56.9046 104.233 56.9606C103.71 57.0166 103.188 57.0445 102.666 57.0445C101.341 57.0445 100.184 56.8486 99.1951 56.4568C98.2249 56.065 97.4133 55.5332 96.7602 54.8615C96.1258 54.1711 95.65 53.3595 95.3328 52.4266C95.0343 51.4936 94.885 50.4861 94.885 49.4039ZM104.681 47.8086C104.662 47.4541 104.597 47.1089 104.485 46.773C104.392 46.4372 104.233 46.1386 104.009 45.8774C103.804 45.6162 103.533 45.4016 103.197 45.2337C102.88 45.0658 102.479 44.9818 101.994 44.9818C101.527 44.9818 101.126 45.0658 100.79 45.2337C100.455 45.383 100.175 45.5882 99.9508 45.8494C99.7269 46.1107 99.5497 46.4185 99.419 46.773C99.3071 47.1089 99.2231 47.4541 99.1672 47.8086H104.681ZM117.807 56.9326C116.594 56.9139 115.605 56.7833 114.84 56.5408C114.094 56.2982 113.496 55.9623 113.049 55.5332C112.619 55.0854 112.321 54.5536 112.153 53.9379C112.004 53.3035 111.929 52.5945 111.929 51.8108V35.6059L116.099 34.9342V50.9712C116.099 51.3444 116.127 51.6802 116.183 51.9788C116.239 52.2773 116.342 52.5292 116.491 52.7344C116.659 52.9397 116.892 53.1076 117.191 53.2382C117.489 53.3688 117.891 53.4528 118.394 53.4901L117.807 56.9326Z" fill="#0B00AE"/>
<rect x="66.5938" y="-3.24249e-05" width="9.96604" height="27.6834" rx="4.98302" fill="#0B00AE"/>
<ellipse cx="71.5791" cy="5.53283" rx="3.73726" ry="4.15252" fill="#FF9500"/>
<rect x="55.3828" y="8.31248" width="9.96604" height="19.3784" rx="4.98302" fill="#0B00AE"/>
<rect x="44.1699" y="16.6197" width="9.96604" height="11.0734" rx="4.98302" fill="#0B00AE"/>
<ellipse cx="60.3662" cy="13.8452" rx="3.73726" ry="4.15252" fill="#FF9500"/>
<ellipse cx="49.1552" cy="22.1525" rx="3.73726" ry="4.15252" fill="#FF9500"/>
</svg>
