<?xml version="1.0" encoding="utf-8"?>
<!-- Generator: Adobe Illustrator 26.5.0, SVG Export Plug-In . SVG Version: 6.00 Build 0)  -->
<svg version="1.1" id="Layer_1" xmlns="http://www.w3.org/2000/svg" xmlns:xlink="http://www.w3.org/1999/xlink" x="0px" y="0px"
	 viewBox="0 0 4000 4000" style="enable-background:new 0 0 4000 4000;" xml:space="preserve">
<style type="text/css">
	.st0{fill:#0066B3;}
	.st1{fill:#FF8300;}
	.st2{fill:none;}
</style>
<g>
	<path class="st0" d="M3593.69,1793.77h-250.46l-154.13,646.44h161.69l61.39-258.24h122.95c113.5,0,147.48-33.76,172.15-139.1
		l21.66-94.35c4.76-18.34,6.62-38.44,6.62-52.22C3735.57,1794.66,3633.42,1793.77,3593.69,1793.77 M3556.86,2029.15
		c-13.26,33.85-34.02,35.64-53.8,35.64h-63.44l38.78-159.26h57.67c10.39,0,41.63,0,41.63,31.08
		C3577.7,1956.79,3561.62,2017.23,3556.86,2029.15"/>
	<path class="st0" d="M1056.73,1793.73l-286.49,646.44h172.99l56.83-143.67h123.84l-14.22,143.67h158.89l48.2-646.44H1056.73z
		 M1134.3,2185.7h-90.78l120.99-332.42L1134.3,2185.7z"/>
	<path class="st0" d="M2231.17,1793.77H1835.9l-24.64,100.7c-5.57-84.74-83.72-111.7-199.48-111.7
		c-118.19,0-145.6,33.88-162.62,54.97c-28.32,36.61-59.56,126.35-59.56,175.78c0,60.47,23.65,77.85,97.4,130.95
		c43.5,32.09,50.14,36.61,63.35,46.71c25.57,20.12,34.95,32.05,34.95,54c0,18.36-9.39,61.39-22.65,77.89
		c-11.33,14.62-28.38,20.12-48.25,20.12c-8.48,0-48.23,0-48.23-42.15c0-15.56,10.43-55.86,17.99-83.3h-160.75
		c-9.42,36.65-19.87,74.18-19.87,107.09c0,110.86,121.02,126.39,208.01,126.39c161.71,0,212.76-59.53,236.36-187.68
		c2.87-12.89,4.79-25.68,4.79-38.47c0-54.03-15.16-73.29-137.1-162.06c-55.76-40.3-66.22-47.66-66.22-76.92
		c0-12.82,6.66-53.09,19.88-71.38c2.83-5.5,14.18-22.03,44.43-22.03c16.06,0,42.55,6.44,42.55,36.61c0,14.67-9.46,50.36-14.17,69.56
		h153.18c10.16-41.11,16.58-68.21,16.88-93.36h118.39l-127.71,534.74h162.62l127.63-534.74h111.62L2231.17,1793.77z"/>
	<path class="st0" d="M2552.66,2103.25c-10.39,69.59-24.59,101.68-49.14,136.45c-36.92-55.89-58.63-95.24-69.02-129.12
		c67.12-35.71,170.23-91.53,170.23-194.13c0-71.42-53.93-120.82-151.3-120.82c-49.17,0-194.84,15.52-194.84,186.77
		c0,32.94,5.67,58.59,13.21,95.24c-54.82,28.42-170.14,86.97-170.14,210.6c0,104.36,85.99,161.12,196.66,161.12
		c70.93,0,119.16-21.94,165.48-43.03c19.87,16.53,59.56,47.61,146.54,47.61c9.51,0,18.93-0.87,29.39-0.87l30.21-105.3
		c-55.79,1.83-76.65-14.69-92.66-27.46c34.07-34.8,82.2-85.16,106.82-217.05H2552.66z M2334.27,2339.5
		c-44.48,0-78.47-17.39-78.47-61.36c0-38.44,24.54-70.51,53.86-96.14c26.47,61.34,41.63,88.89,82.28,145.58
		C2374.92,2334,2361.68,2339.5,2334.27,2339.5 M2397.62,1962.25c0-54.92,26.42-77.82,50.11-77.82c16.08,0,29.34,12.84,29.34,34.79
		c0,46.71-34.07,75.12-73.81,97.97C2400.45,1998.89,2397.62,1980.57,2397.62,1962.25"/>
	<path class="st0" d="M3100.16,1792.9l-109.62,462.36c-9.52,35.73-20.86,74.13-67.19,74.13c-29.32,0-49.17-11.85-49.17-38.41
		c0-13.78,3.76-30.21,5.68-35.73l109.67-462.36h-160.74l-92.66,379.08c-17.05,70.44-22.68,106.12-23.65,136.45
		c-2.9,105.23,91.79,141.86,198.58,141.86c182.57,0,215.57-96.09,239.2-195.02l110.63-462.36H3100.16z"/>
	<polygon class="st0" points="519.57,1546.07 508.74,1708.85 634.19,2001.09 461.11,2387.18 358.82,2387.18 345.39,2444.03 
		556.97,2443.41 665.67,2072.33 857.31,2072.33 930.84,1906.26 692.43,1906.26 734.86,1728.52 1011.19,1728.52 1092.7,1546.07 	"/>
	<path class="st0" d="M3431.51,2263.79c0.22-9.04,2.83-17.47,7.78-25.21c4.93-7.76,11.6-13.76,19.85-17.99
		c8.26-4.21,17.03-6.2,26.39-5.93c9.37,0.27,18.02,2.77,26.09,7.46c8.05,4.69,14.32,11.06,18.83,19.04
		c4.49,7.96,6.59,16.5,6.39,25.57c-0.27,8.85-2.77,17.08-7.53,24.71c-4.76,7.66-11.25,13.66-19.55,18.12
		c-8.35,4.46-17.33,6.52-27.06,6.25c-9.62-0.3-18.44-2.82-26.45-7.63c-7.98-4.86-14.18-11.22-18.57-19.15
		C3433.25,2281.07,3431.23,2272.67,3431.51,2263.79 M3442.88,2264.1c-0.18,7.11,1.44,13.76,4.98,19.97
		c3.49,6.2,8.38,11.15,14.62,14.85c6.32,3.74,13.16,5.7,20.52,5.9c7.33,0.18,14.22-1.34,20.69-4.68c6.47-3.29,11.6-7.91,15.49-13.95
		c3.92-6.04,5.93-12.62,6.15-19.82c0.22-7.11-1.46-13.73-5-19.97c-3.45-6.22-8.37-11.18-14.62-14.89
		c-6.3-3.69-13.13-5.65-20.47-5.85c-7.41-0.2-14.37,1.42-20.86,4.79c-6.54,3.35-11.74,8.06-15.49,14.08
		C3445.09,2250.56,3443.09,2257.1,3442.88,2264.1 M3511.18,2253.43c-0.13,4.09-1.31,7.49-3.44,10.19c-2.15,2.73-5.47,4.79-9.91,6.25
		l14.1,24.33l-20-0.57l-10.56-21.84l-0.91-0.03l-0.57,21.54l-19.65-0.54l1.66-58.89l20.32,0.57c10.01,0.27,17.37,2.08,22.08,5.36
		C3509.05,2243.07,3511.31,2247.62,3511.18,2253.43 M3480.8,2259.91l0.7,0.03c3.65,0.07,6.22-0.34,7.63-1.29
		c1.42-0.94,2.16-2.63,2.23-5.03c0.07-2.46-0.7-4.07-2.33-4.81c-1.66-0.75-4.11-1.19-7.33-1.26l-0.55-0.03L3480.8,2259.91z"/>
	<polygon class="st1" points="443.78,2361.43 606.85,1999.04 444.53,1636.65 264.43,1636.65 426.49,1999.07 264.43,2361.43 	"/>
	<rect x="264.43" y="1546.07" class="st2" width="3471.14" height="907.85"/>
	<rect x="264.43" y="1546.07" class="st2" width="3471.14" height="907.85"/>
</g>
</svg>
