<?xml version="1.0" encoding="UTF-8"?><svg id="a" xmlns="http://www.w3.org/2000/svg" xmlns:xlink="http://www.w3.org/1999/xlink" viewBox="0 0 841.89 595.28"><defs><style>.c{fill:none;}.d{fill:#faa61a;}.e{fill:#fd0;}.f{fill:#ed0973;}.g{fill:#f37021;}.h{fill:#231f20;}.i{fill:#50b848;}.j{clip-path:url(#b);}</style><clipPath id="b"><rect class="c" width="841.89" height="595.28"/></clipPath></defs><g class="j"><path class="i" d="M239.26,318.73c-.94,13.65-12.91,23.8-26.29,23.8-14.32,0-26.62-11.43-26.62-25.95,0-6.59,3.02-13.24,7.66-17.82,5.18-5.11,11.83-7.6,18.96-7.6,5.18,0,10.29,1.41,14.59,4.23,3.23,2.15,7.4,5.98,8.67,9.82h-5.65c-3.5-5.85-10.69-9.28-17.61-9.28-5.31,0-10.69,1.81-14.79,5.58-4.1,3.76-6.86,9.48-6.86,15.13,0,12.1,10.02,21.11,21.85,21.11,8.88,0,17.61-5.85,20.1-14.52h-27.77v-4.5h33.75Z"/><path class="i" d="M246.26,304.88h4.71v5.31c1.95-4.37,6.19-5.98,10.69-6.12v4.91c-2.69,.2-4.57,.81-6.66,2.55-3.43,2.89-3.76,5.38-3.76,9.55v20.57h-4.98v-36.77Z"/><path class="i" d="M269.8,325.05c.27,6.99,7.06,12.71,13.85,12.71,5.45,0,10.96-3.02,13.18-8.07h5.18c-2.55,7.39-10.08,12.84-17.88,12.84-10.76,0-19.3-8.47-19.3-19.23s8.47-19.23,19.16-19.23c5.78,0,11.09,2.62,14.79,7.13,3.43,4.24,4.17,8.54,4.3,13.85h-33.28Zm28.3-4.51c-1.28-6.52-7.26-11.7-14.05-11.7s-13.04,4.91-14.25,11.7h28.3Z"/><path class="i" d="M313.5,325.05c.27,6.99,7.06,12.71,13.85,12.71,5.45,0,10.96-3.02,13.18-8.07h5.18c-2.55,7.39-10.08,12.84-17.88,12.84-10.76,0-19.29-8.47-19.29-19.23s8.47-19.23,19.16-19.23c5.78,0,11.09,2.62,14.79,7.13,3.43,4.24,4.17,8.54,4.3,13.85h-33.28Zm28.3-4.51c-1.28-6.52-7.26-11.7-14.05-11.7s-13.04,4.91-14.25,11.7h28.3Z"/><path class="i" d="M353.64,304.88h4.71v5.31c2.82-3.97,6.59-6.12,11.43-6.12s9.75,2.15,13.04,6.12c2.82,3.56,3.36,7.46,3.36,12.1v19.36h-4.98v-19.36c0-3.16-.27-6.12-2.15-8.74-2.22-3.09-5.71-4.71-9.48-4.71-3.43,0-6.99,1.68-9.01,4.5-1.95,2.62-1.88,5.85-1.95,8.94v19.36h-4.98v-36.77Z"/><polygon class="h" points="389.63 291.97 395.08 291.97 412.49 335.47 430.04 291.97 435.48 291.97 414.84 341.66 410.14 341.66 389.63 291.97"/><path class="h" d="M437.18,325.05c.27,6.99,7.06,12.71,13.85,12.71,5.45,0,10.96-3.02,13.18-8.07h5.18c-2.55,7.39-10.08,12.84-17.88,12.84-10.76,0-19.29-8.47-19.29-19.23s8.47-19.23,19.16-19.23c5.78,0,11.09,2.62,14.79,7.13,3.43,4.24,4.17,8.54,4.3,13.85h-33.28Zm28.3-4.51c-1.28-6.52-7.26-11.7-14.05-11.7s-13.04,4.91-14.25,11.7h28.3Z"/><path class="h" d="M477.32,304.88h4.71v5.31c1.95-4.37,6.19-5.98,10.69-6.12v4.91c-2.69,.2-4.57,.81-6.66,2.55-3.43,2.89-3.76,5.38-3.76,9.55v20.57h-4.98v-36.77Z"/><path class="h" d="M499.5,330.83c-.14,3.77,2.89,6.92,6.66,6.92,3.56,0,6.45-2.49,6.45-6.12,0-4.44-3.49-6.05-7.13-7.06-2.35-.74-4.84-1.48-6.65-3.23-1.95-1.75-2.96-4.37-2.96-6.99,0-5.98,4.84-10.29,10.62-10.29s10.15,4.57,10.15,9.95h-4.97c0-3.23-2.49-5.18-5.71-5.18-2.82,0-5.11,2.29-5.11,5.11,0,4.03,3.23,5.11,6.45,6.12,5.51,1.75,10.29,4.1,10.29,10.76s-5.04,11.7-11.9,11.7c-6.25,0-11.5-5.45-11.16-11.7h4.98Z"/><path class="h" d="M527.2,325.05c.27,6.99,7.06,12.71,13.85,12.71,5.45,0,10.96-3.02,13.18-8.07h5.18c-2.55,7.39-10.08,12.84-17.88,12.84-10.76,0-19.29-8.47-19.29-19.23s8.47-19.23,19.16-19.23c5.78,0,11.09,2.62,14.79,7.13,3.43,4.24,4.17,8.54,4.3,13.85h-33.28Zm28.3-4.51c-1.28-6.52-7.26-11.7-14.05-11.7s-13.04,4.91-14.25,11.7h28.3Z"/><path class="f" d="M457.69,230.14c10.99,6.69,23.9,10.55,37.71,10.55,24.61,0,46.36-12.25,59.5-30.98-10.99-6.69-23.9-10.55-37.71-10.55-24.61,0-46.36,12.25-59.5,30.98"/><path class="g" d="M529.97,258.87c7.54,4.06,16.26,6.17,25.44,5.68,16.36-.87,30.39-9.78,38.45-22.7-7.54-4.06-16.26-6.17-25.43-5.68-16.36,.87-30.39,9.78-38.46,22.69"/><path class="d" d="M564.7,283.27c3.67,3.71,8.38,6.49,13.81,7.84,9.69,2.4,19.45-.29,26.45-6.38-3.67-3.71-8.38-6.49-13.81-7.84-9.69-2.41-19.45,.29-26.45,6.38"/><path class="e" d="M578.28,308.66c.9,3.32,2.7,6.43,5.38,8.97,4.78,4.52,11.25,6.13,17.23,4.91-.9-3.32-2.7-6.43-5.38-8.97-4.78-4.52-11.25-6.13-17.23-4.91"/><path class="i" d="M565.06,206.07c-2.96,0-5.94,.17-8.87,.49-11.62-6.87-24.89-10.5-38.47-10.5-24.66,0-47.85,12.08-62.03,32.3l-1.9,2.71,2.82,1.72c11.82,7.2,25.41,11,39.32,11,24.16,0,46.91-11.6,61.15-31.09,2.64-.28,5.32-.43,7.98-.43,33.84,0,62.48,22.69,71.51,53.66-9.45-13.33-23.68-22.93-40.01-26.42l-.7-.38c-8.28-4.46-17.64-6.55-27.07-6.05-16.73,.89-32.03,9.92-40.92,24.15l-1.75,2.8,2.91,1.57c7.47,4.02,15.83,6.12,24.33,6.12,.91,0,1.83-.02,2.74-.07,15.88-.84,30.45-9.02,39.5-22.01,20.38,4.49,37.11,19.48,43.78,39.33,.04,.11,.08,.2,.13,.3,0,.49,.02,.98,.02,1.47,0,10.95-2.38,21.36-6.64,30.73-4.62-14.24-13.63-26.69-25.92-35.63-4.06-3.86-9.07-6.6-14.54-7.96-10.29-2.55-21.22,.08-29.23,7.05l-2.49,2.17,2.33,2.35c4.19,4.23,9.47,7.23,15.27,8.67,2.59,.64,5.21,.96,7.83,.96,6.97,0,13.83-2.25,19.49-6.48,11.72,9.33,19.82,22.28,23.03,36.88-4.53,7.42-10.33,13.98-17.09,19.39-.15-2.23-.41-4.46-.82-6.67-1.18-6.36-3.41-12.39-6.63-17.94-.09-.16-.2-.29-.31-.43-1.19-3.22-3.11-6.13-5.62-8.51-5.32-5.04-12.79-7.17-19.99-5.7l-3.24,.66,.87,3.19c1.08,3.97,3.24,7.57,6.24,10.4,4.21,3.99,9.77,6.15,15.47,6.15,.85,0,1.71-.05,2.56-.15,2.14,4.23,3.67,8.73,4.55,13.45,.58,3.13,.87,6.31,.85,9.47,0,.14,.01,.29,.03,.43-11.66,7.58-25.56,11.98-40.47,11.98-3.11,0-6.23-.19-9.29-.57-1.7-.21-3.25,.99-3.46,2.69-.21,1.7,.99,3.25,2.69,3.46,3.31,.41,6.7,.62,10.06,.62,44.48,0,80.67-36.19,80.67-80.67s-36.19-80.67-80.67-80.67m-69.13,31.52c-11.63,0-23.02-2.9-33.15-8.4,13.14-16.92,33.43-26.93,54.94-26.93,11.63,0,23.02,2.89,33.15,8.4-13.14,16.92-33.43,26.93-54.94,26.93m59.85,23.87c-7.14,.38-14.23-.93-20.71-3.8,8-10.86,20.49-17.67,34.05-18.39,7.14-.38,14.23,.93,20.71,3.8-8,10.87-20.49,17.67-34.05,18.39m24.02,26.64c-3.53-.88-6.82-2.46-9.67-4.65,6.1-4,13.65-5.33,20.82-3.55,3.53,.88,6.82,2.46,9.67,4.65-6.1,4-13.65,5.33-20.82,3.55m6.53,27.28c-1.24-1.17-2.28-2.52-3.09-4,3.95,.13,7.76,1.68,10.69,4.45,1.24,1.17,2.28,2.53,3.09,4-3.95-.13-7.76-1.68-10.69-4.45"/></g></svg>