<?xml version="1.0" encoding="UTF-8" standalone="no"?>
<!-- Created with Inkscape (http://www.inkscape.org/) -->

<svg
   version="1.1"
   id="svg2"
   xml:space="preserve"
   width="1753.0933"
   height="1559.3867"
   viewBox="0 0 1753.0933 1559.3867"
   sodipodi:docname="Ratna Nidhi Logo (2).eps"
   xmlns:inkscape="http://www.inkscape.org/namespaces/inkscape"
   xmlns:sodipodi="http://sodipodi.sourceforge.net/DTD/sodipodi-0.dtd"
   xmlns="http://www.w3.org/2000/svg"
   xmlns:svg="http://www.w3.org/2000/svg"><defs
     id="defs6" /><sodipodi:namedview
     id="namedview4"
     pagecolor="#ffffff"
     bordercolor="#666666"
     borderopacity="1.0"
     inkscape:pageshadow="2"
     inkscape:pageopacity="0.0"
     inkscape:pagecheckerboard="0" /><g
     id="g8"
     inkscape:groupmode="layer"
     inkscape:label="ink_ext_XXXXXX"
     transform="matrix(1.3333333,0,0,-1.3333333,0,1559.3867)"><g
       id="g10"
       transform="scale(0.1)"><path
         d="m 6006.2,3256 c 0,0 2289.81,1253.94 7142,-399.81 v 1308.46 l -563.3,109.04 v -699.67 c 0,0 -3552.88,1253.95 -6578.7,-318.02"
         style="fill:#346dbf;fill-opacity:1;fill-rule:nonzero;stroke:none"
         id="path12" /><path
         d="m 12066.9,7935.57 h 309 l 145.3,-2907.7 c 0,0 -4470.53,490.67 -6596.77,-1671.92 0,0 3216.63,2017.21 7160.17,1017.69 l -181.7,3961.73 h -854.2 l 18.2,-399.8"
         style="fill:#346dbf;fill-opacity:1;fill-rule:nonzero;stroke:none"
         id="path14" /><path
         d="m 5815.39,3355.95 c 0,0 908.65,2253.46 6142.51,2362.5 l -181.7,4052.59 c 0,0 -1871.87,18.18 -2889.56,-726.92 0,0 1508.36,508.85 2307.96,345.29 l 109.1,-3162.12 c 0,0 -2762.36,-308.94 -4016.3,-1144.9 0,0 -1362.97,-945 -1472.01,-1726.44"
         style="fill:#346dbf;fill-opacity:1;fill-rule:nonzero;stroke:none"
         id="path16" /><path
         d="m 6124.33,4537.2 c 0,0 -1472.02,1235.77 -4924.91,1163.07 l 199.91,4070.77 c 0,0 1544.71,145.39 2780.48,-690.57 0,0 -1453.85,472.5 -2217.12,308.94 l -90.86,-3143.94 c 0,0 835.96,-54.52 2489.71,-508.85 0,0 1235.77,-363.46 1926.35,-981.35 L 6124.33,4537.2"
         style="fill:#51aee5;fill-opacity:1;fill-rule:nonzero;stroke:none"
         id="path18" /><path
         d="m 5742.69,4064.7 c 0,0 -2453.36,926.82 -5669.9986,345.29 L 236.25,8335.37 h 854.14 l -18.18,-363.46 H 763.27 L 654.23,5009.7 c 0,0 2253.46,127.21 2925.87,18.17 0,0 1690.09,-363.46 2344.33,-745.1 L 5742.69,4064.7"
         style="fill:#51aee5;fill-opacity:1;fill-rule:nonzero;stroke:none"
         id="path20" /><path
         d="M 0,4191.91 V 2865.27 c 0,0 3434.71,1217.6 5524.62,708.75 l 127.21,254.43 c 0,0 -2744.14,545.19 -5015.775,-145.38 L 617.887,4282.77 0,4191.91"
         style="fill:#51aee5;fill-opacity:1;fill-rule:nonzero;stroke:none"
         id="path22" /><path
         d="m 6199.77,10442.1 c -94.48,-88 -221.15,-134 -350.17,-122.6 -214.75,19.2 -397.63,183.6 -469.25,382.3 -77.27,214.3 -25.3,453.9 114.67,630.2 110.53,139.2 291.89,231.3 468.43,243.5 147.38,10.1 302.26,-54.5 386.28,-178.6 179.56,-265.1 75.35,-745.1 -149.96,-954.8 z m 367.66,791.5 c -186.62,310.3 -707.75,537.4 -1056.85,429.6 -311.56,-96.1 -481.78,-420.8 -456.08,-732.3 23.37,-283.3 208.63,-564.5 487.61,-655 327.04,-106 760.99,-42.8 991.23,232.1 168.89,201.7 166.29,505.7 34.09,725.6"
         style="fill:#346dbf;fill-opacity:1;fill-rule:nonzero;stroke:none"
         id="path24" /><path
         d="m 6199.77,10442.1 c -94.48,-88 -221.15,-134 -350.17,-122.6 -214.75,19.2 -397.63,183.6 -469.25,382.3 -77.27,214.3 -25.3,453.9 114.67,630.2 110.53,139.2 291.89,231.3 468.43,243.5 147.38,10.1 302.26,-54.5 386.28,-178.6 179.56,-265.1 75.35,-745.1 -149.96,-954.8 z m 367.66,791.5 c -186.62,310.3 -707.75,537.4 -1056.85,429.6 -311.56,-96.1 -481.78,-420.8 -456.08,-732.3 23.37,-283.3 208.63,-564.5 487.61,-655 327.04,-106 760.99,-42.8 991.23,232.1 168.89,201.7 166.29,505.7 34.09,725.6 z"
         style="fill:none;stroke:#346dbf;stroke-width:10;stroke-linecap:butt;stroke-linejoin:miter;stroke-miterlimit:10;stroke-dasharray:none;stroke-opacity:1"
         id="path26" /><path
         d="m 5839.67,10227.3 c 0,0 -92.62,-983.96 -92.62,-1070.67 0,2.1 -317.98,-72.48 -337.36,-78.69 C 4764.6,8871.5 4325.7,8253.36 4282.12,7581.34 c -2.58,-39.75 -3.19,-79.63 -1.2,-119.43 6.71,-134.17 13.68,-264.44 43.65,-396.43 141.53,-623.18 675.75,-1091.71 1270.99,-1276.17 665.31,-206.19 1427.43,6.55 1834.77,585.76 261.91,372.42 352.91,860.36 241.1,1301.92 -25.02,98.81 -59.92,195.85 -112.84,282.96 78.71,-405.9 19.91,-838.94 -173.86,-1204.19 -307.32,-579.3 -944.29,-952.55 -1603.27,-884.98 -374.95,38.46 -731.56,220.57 -955.51,528.11 -108.97,149.64 -205.38,315.49 -253.38,495.48 -151.92,569.72 -6.5,1208.86 440.83,1611.98 61.47,55.4 129.04,93.33 197.65,137.92 0,0 315.29,204.94 528.11,228.59 -9.93,-1.1 -7.28,-333.87 -5.16,-366.67 7.97,-123.13 38.29,-241.25 119.69,-336.55 93.22,-109.13 238.86,-126.97 374.03,-125.04 292.74,4.19 582.26,11.87 875.1,0.61 0,0 409.89,-15.77 488.71,-39.41 0,0 252.24,-23.65 260.13,-323.18 v -985.31 c 0,0 7.85,-573.7 7.88,-575.41 0.98,-72.41 37.92,-153.15 83.28,-207.51 121.57,-145.68 315.75,-111.96 481.55,-91.15 32.77,4.11 444.11,39.11 444.11,46.43 v 31.53 c -1.14,11.59 -566.89,68.41 -614.82,70.94 0,0 -149.77,7.88 -134.01,291.64 0,443.05 2.3,886.18 1.37,1329.19 -0.57,274.01 -153.92,569.46 -447.72,611.58 -107.04,15.34 -221.83,-6.18 -329.16,-14.71 -321.98,-25.59 -644.69,-55.45 -968.03,-43.44 -202.31,7.52 -386.85,91.97 -384.87,315.32 1.3,147.53 0.16,295.13 0.16,442.67 l 1655.31,126.12 c 0,0 -1221.77,149.77 -1671.07,134 0,0 -39.41,880.19 -74.88,1062.79 h -61.09"
         style="fill:#346dbf;fill-opacity:1;fill-rule:nonzero;stroke:none"
         id="path28" /><path
         d="m 5839.67,10227.3 c 0,0 -92.62,-983.96 -92.62,-1070.67 0,2.1 -317.98,-72.48 -337.36,-78.69 C 4764.6,8871.5 4325.7,8253.36 4282.12,7581.34 c -2.58,-39.75 -3.19,-79.63 -1.2,-119.43 6.71,-134.17 13.68,-264.44 43.65,-396.43 141.53,-623.18 675.75,-1091.71 1270.99,-1276.17 665.31,-206.19 1427.43,6.55 1834.77,585.76 261.91,372.42 352.91,860.36 241.1,1301.92 -25.02,98.81 -59.92,195.85 -112.84,282.96 78.71,-405.9 19.91,-838.94 -173.86,-1204.19 -307.32,-579.3 -944.29,-952.55 -1603.27,-884.98 -374.95,38.46 -731.56,220.57 -955.51,528.11 -108.97,149.64 -205.38,315.49 -253.38,495.48 -151.92,569.72 -6.5,1208.86 440.83,1611.98 61.47,55.4 129.04,93.33 197.65,137.92 0,0 315.29,204.94 528.11,228.59 -9.93,-1.1 -7.28,-333.87 -5.16,-366.67 7.97,-123.13 38.29,-241.25 119.69,-336.55 93.22,-109.13 238.86,-126.97 374.03,-125.04 292.74,4.19 582.26,11.87 875.1,0.61 0,0 409.89,-15.77 488.71,-39.41 0,0 252.24,-23.65 260.13,-323.18 v -985.31 c 0,0 7.85,-573.7 7.88,-575.41 0.98,-72.41 37.92,-153.15 83.28,-207.51 121.57,-145.68 315.75,-111.96 481.55,-91.15 32.77,4.11 444.11,39.11 444.11,46.43 v 31.53 c -1.14,11.59 -566.89,68.41 -614.82,70.94 0,0 -149.77,7.88 -134.01,291.64 0,443.05 2.3,886.18 1.37,1329.19 -0.57,274.01 -153.92,569.46 -447.72,611.58 -107.04,15.34 -221.83,-6.18 -329.16,-14.71 -321.98,-25.59 -644.69,-55.45 -968.03,-43.44 -202.31,7.52 -386.85,91.97 -384.87,315.32 1.3,147.53 0.16,295.13 0.16,442.67 l 1655.31,126.12 c 0,0 -1221.77,149.77 -1671.07,134 0,0 -39.41,880.19 -74.88,1062.79 z"
         style="fill:none;stroke:#346dbf;stroke-width:10;stroke-linecap:butt;stroke-linejoin:miter;stroke-miterlimit:10;stroke-dasharray:none;stroke-opacity:1"
         id="path30" /><g
         id="g32"
         transform="scale(10)"><text
           transform="matrix(1,0,0,-1,0.486328,52)"
           style="font-variant:normal;font-weight:normal;font-size:266.232px;font-family:FightNight;-inkscape-font-specification:FightNight;writing-mode:lr-tb;fill:#2b62a1;fill-opacity:1;fill-rule:nonzero;stroke:none"
           id="text36"><tspan
             x="0 142.996 285.992 402.98801 545.98401 688.98004 755.01813 898.01416 963.01208 1106.0081 1249.004"
             y="0"
             sodipodi:role="line"
             id="tspan34">RATNA NIDHI</tspan></text></g></g></g></svg>
