<?xml version="1.0" encoding="utf-8"?>
<!-- Generator: Adobe Illustrator 26.0.1, SVG Export Plug-In . SVG Version: 6.00 Build 0)  -->
<svg version="1.1" id="Layer_1" xmlns="http://www.w3.org/2000/svg" xmlns:xlink="http://www.w3.org/1999/xlink" x="0px" y="0px"
	 viewBox="0 0 841.89 595.28" style="enable-background:new 0 0 841.89 595.28;" xml:space="preserve">
<style type="text/css">
	.st0{fill:#FFFFFF;}
	.st1{fill:#232222;}
	.st2{fill:url(#SVGID_1_);}
	.st3{fill:url(#SVGID_00000085960050289408401300000002855003998598935483_);}
	.st4{fill:url(#SVGID_00000114063333579480149320000005568718563554104203_);}
	.st5{fill:url(#SVGID_00000082358935534004041770000011886819912708392859_);}
	.st6{fill:url(#SVGID_00000034079750607075547970000002623922129751077297_);}
	.st7{fill:url(#SVGID_00000160893298910500382210000011318653812122715051_);}
</style>
<rect x="0" class="st1" width="841.89" height="595.28"/>
<g>
	<g>
		<path class="st0" d="M288.73,314.73c3.57,6.44,10.81,10.93,20.47,10.93c8.86,0,15.53-3.8,15.53-9.32c0-5.18-4.14-8.17-14.84-10.93
			l-10.24-2.65c-14.84-3.79-22.77-11.73-22.77-23.58c0-15.07,12.54-25.99,31.86-25.99c14.84,0,27.37,6.56,32.89,17.6l-14.72,7.94
			c-3.1-5.64-10.24-9.66-18.4-9.66c-7.94,0-13.57,3.68-13.57,9.2c0,5.06,4.02,7.71,14.72,10.47l10.23,2.65
			c14.84,4.02,22.89,12.08,22.89,24.15c0,15.07-13.92,25.99-33.81,25.99c-16.56,0-29.21-7.25-35.08-18.86L288.73,314.73z"/>
		<path class="st0" d="M398.71,337.73c-3.57,2.3-9.55,3.79-15.53,3.79c-15.53,0-24.04-8.86-24.04-25.88V293h-12.77v-15.3h12.77
			v-16.33h17.48v16.33h19.78V293h-19.78v22.54c0,7.01,3.1,10.47,9.32,10.47c3.56,0,6.55-0.69,9.08-2.07L398.71,337.73z"/>
		<path class="st0" d="M436.28,276.09c18.98,0,33.24,14.15,33.24,32.66c0,18.75-14.26,32.78-33.24,32.78
			c-19.21,0-33.24-14.03-33.24-32.78C403.04,290.12,417.07,276.09,436.28,276.09z M448.12,296.45c-2.99-3.34-6.9-4.95-11.85-4.95
			c-4.94,0-8.86,1.61-11.96,4.95c-3.1,3.22-4.6,7.36-4.6,12.31c0,4.94,1.5,9.08,4.6,12.42c3.1,3.34,7.02,4.95,11.96,4.95
			c4.95,0,8.86-1.61,11.85-4.95c3.11-3.33,4.6-7.48,4.6-12.42C452.72,303.81,451.23,299.67,448.12,296.45z"/>
		<path class="st0" d="M510.59,276.09c11.96,0,22.2,5.41,28.06,14.49l-14.38,8.05c-2.88-4.49-7.82-7.13-13.69-7.13
			c-4.94,0-8.86,1.61-11.96,4.95c-3.1,3.22-4.6,7.36-4.6,12.31c0,4.94,1.5,9.08,4.6,12.42c3.1,3.34,7.02,4.95,11.96,4.95
			c5.87,0,10.81-2.64,13.69-7.13l14.38,7.94c-5.87,9.09-16.1,14.61-28.06,14.61c-19.21,0-33.24-14.03-33.24-32.78
			C477.35,290.12,491.38,276.09,510.59,276.09z"/>
		<path class="st0" d="M588.32,339.92l-23.81-27.14v27.14h-17.48v-86.6h17.48v51.18l22.66-26.8h20.24l-26.57,30.94l27.95,31.28
			H588.32z"/>
		<path class="st0" d="M646.68,314.27h-12.65v25.65h-17.94v-85.11h30.59c22.77,0,36.23,12.31,36.23,29.79
			C682.91,301.85,669.45,314.27,646.68,314.27z M646.68,270.91h-12.65v27.26h12.65c12.19,0,18.29-4.49,18.29-13.57
			C664.97,275.51,658.87,270.91,646.68,270.91z"/>
		<path class="st0" d="M705.58,314.62c2.19,7.93,8.74,12.08,17.48,12.08c6.33,0,12.19-2.76,15.07-7.25l13.46,8.4
			c-5.41,8.28-16.56,13.68-28.52,13.68c-20.36,0-34.39-14.03-34.39-32.78c0-18.63,13.57-32.66,32.32-32.66
			c18.52,0,32.32,12.65,32.32,31.28c0,2.88-0.11,5.29-0.34,7.25H705.58z M736.4,302.89c-0.8-7.36-6.9-12.42-15.3-12.42
			c-7.36,0-13.57,4.49-15.53,12.42H736.4z"/>
	</g>
	<g>
		<radialGradient id="SVGID_1_" cx="65.7241" cy="368.1151" r="223.0204" gradientUnits="userSpaceOnUse">
			<stop  offset="0" style="stop-color:#D89E2B"/>
			<stop  offset="0.9955" style="stop-color:#FFD37F"/>
		</radialGradient>
		<path class="st2" d="M92.07,339.87l1.05,0.61l62.68-36.18c0.93-0.54,0.93-1.88,0-2.41l-6.98-4.03l-22.5-12.98
			c-0.93-0.54-0.93-1.88,0-2.41l7.72-4.47l64.76-37.39l-37.07-21.4c-2.16-1.25-4.81-1.25-6.97,0l-62.7,36.2
			c-2.16,1.25-3.48,3.55-3.48,6.04v72.4C88.58,336.33,89.91,338.63,92.07,339.87z"/>
		
			<radialGradient id="SVGID_00000037657683040169121130000009728039423311842704_" cx="65.7241" cy="368.1151" r="223.0204" gradientUnits="userSpaceOnUse">
			<stop  offset="0" style="stop-color:#D89E2B"/>
			<stop  offset="0.9955" style="stop-color:#FFD37F"/>
		</radialGradient>
		<path style="fill:url(#SVGID_00000037657683040169121130000009728039423311842704_);" d="M224.44,255.4l-1.05-0.6l-62.67,36.17
			c-0.93,0.54-0.93,1.88,0,2.41l6.98,4.03l22.5,13c0.93,0.54,0.93,1.88,0,2.41l-7.72,4.45l-64.78,37.4l37.06,21.4
			c2.16,1.25,4.81,1.25,6.97,0l62.7-36.2c2.16-1.25,3.49-3.55,3.49-6.04v-72.4C227.92,258.95,226.59,256.65,224.44,255.4z"/>
	</g>
</g>
</svg>
