<?xml version="1.0" encoding="UTF-8" standalone="no"?>
<svg
   xmlns:dc="http://purl.org/dc/elements/1.1/"
   xmlns:cc="http://creativecommons.org/ns#"
   xmlns:rdf="http://www.w3.org/1999/02/22-rdf-syntax-ns#"
   xmlns:svg="http://www.w3.org/2000/svg"
   xmlns="http://www.w3.org/2000/svg"
   xmlns:sodipodi="http://sodipodi.sourceforge.net/DTD/sodipodi-0.dtd"
   xmlns:inkscape="http://www.inkscape.org/namespaces/inkscape"
   width="147.24133mm"
   height="147.24133mm"
   viewBox="0 0 147.24133 147.24133"
   version="1.1"
   id="svg6476"
   inkscape:version="1.0.2-2 (e86c870879, 2021-01-15)"
   sodipodi:docname="logoalt.svg">
  <defs
     id="defs6470" />
  <sodipodi:namedview
     id="base"
     pagecolor="#ffffff"
     bordercolor="#666666"
     borderopacity="1.0"
     inkscape:pageopacity="0.0"
     inkscape:pageshadow="2"
     inkscape:zoom="0.35"
     inkscape:cx="286.82306"
     inkscape:cy="303.96559"
     inkscape:document-units="mm"
     inkscape:current-layer="layer1"
     inkscape:document-rotation="0"
     showgrid="false"
     fit-margin-top="0"
     fit-margin-left="0"
     fit-margin-right="0"
     fit-margin-bottom="0"
     inkscape:window-width="1431"
     inkscape:window-height="1019"
     inkscape:window-x="32"
     inkscape:window-y="0"
     inkscape:window-maximized="0" />
  <metadata
     id="metadata6473">
    <rdf:RDF>
      <cc:Work
         rdf:about="">
        <dc:format>image/svg+xml</dc:format>
        <dc:type
           rdf:resource="http://purl.org/dc/dcmitype/StillImage" />
        <dc:title></dc:title>
      </cc:Work>
    </rdf:RDF>
  </metadata>
  <g
     inkscape:label="Layer 1"
     inkscape:groupmode="layer"
     id="layer1"
     transform="translate(-29.944733,-67.742436)">
    <g
       id="g6400"
       style="stroke:#fffcff;stroke-opacity:1"
       transform="translate(-1082.0831,-391.36286)"
       inkscape:export-xdpi="181.741"
       inkscape:export-ydpi="181.741">
      <path
         style="fill:none;fill-opacity:1;fill-rule:evenodd;stroke:#fffcff;stroke-width:1.1;stroke-linecap:round;stroke-linejoin:round;stroke-miterlimit:4;stroke-dasharray:none;stroke-opacity:1;paint-order:markers stroke fill"
         d="m 1117.0229,557.45482 c 5.1228,-0.53536 10.431,-1.73031 15.5122,-0.51853 3.5171,0.71602 7.1731,2.25489 10.7233,1.18542 2.2046,-0.66707 5.5132,-1.63399 6.9288,-3.60651 0.6622,-1.62194 -2.0349,-3.19939 -3.4959,-2.70061 -4.2298,0.60852 -8.0948,3.15387 -12.4871,2.53215 -2.1842,0.0355 -17.1345,-4.74227 -18.7082,-2.99191"
         id="path2594-4-54-1-9-75"
         sodipodi:nodetypes="ccccccc" />
      <path
         style="fill:none;fill-opacity:1;fill-rule:evenodd;stroke:#fffcff;stroke-width:1.1;stroke-linecap:round;stroke-linejoin:round;stroke-miterlimit:4;stroke-dasharray:none;stroke-opacity:1;paint-order:markers stroke fill"
         d="m 1257.7039,544.48234 c -2.1177,2.14556 -8.7677,4.40956 -11.3386,4.9836 -10.3707,3.70933 -19.0501,-2.9526 -28.1616,-0.0695 -1.9492,0.47815 -3.8895,2.67238 -2.9486,4.71599 1.3861,3.25771 5.2545,3.10218 8.169,3.11752 5.7211,0.0301 10.8102,-1.77556 17.1803,-2.74131 4.2942,-0.14954 9.5531,1.45782 13.1539,4.22523"
         id="path2596-7-5-6-72-5"
         sodipodi:nodetypes="ccccscc" />
      <path
         style="fill:none;fill-opacity:1;fill-rule:evenodd;stroke:#fffcff;stroke-width:1.1;stroke-linecap:round;stroke-linejoin:round;stroke-miterlimit:4;stroke-dasharray:none;stroke-opacity:1;paint-order:markers stroke fill"
         d="m 1251.8759,563.22248 -2.0057,0.57309 c -6.3635,1.81821 -12.2006,0.90039 -18.7107,0.89941 -5.8287,0.0527 -11.7279,-0.85842 -17.5157,0.0961 -1.8046,0.27678 -4.0254,1.63157 -3.3703,3.76515 0.7637,2.24509 3.6836,2.09648 5.6131,2.40657 4.3032,0.49077 9.0252,0.17429 12.8715,2.42465 3.106,2.19801 3.4763,7.04936 1.4986,10.11205 -2.9845,3.91904 -8.115,5.1255 -12.5082,6.86108 -5.7742,2.0187 -12.128,3.41875 -16.837,7.56518 -1.4767,1.46851 -3.128,6.2809 -3.128,6.2809"
         id="path2598-1-5-1-1-9"
         sodipodi:nodetypes="csccccccccc" />
      <path
         style="fill:none;fill-opacity:1;fill-rule:evenodd;stroke:#fffcff;stroke-width:1.1;stroke-linecap:round;stroke-linejoin:round;stroke-miterlimit:4;stroke-dasharray:none;stroke-opacity:1;paint-order:fill markers stroke"
         d="m 1185.0748,605.23563 c 0.5392,-2.89729 0.1294,-6.13818 0.708,-9.13889 0.4361,-4.35562 3.4969,-8.23205 7.6883,-9.56588 3.7359,-1.53843 7.5898,-1.94055 10.3872,-5.0698 1.3256,-1.56167 1.3204,-3.23519 0.3404,-4.27678 -2.9538,-3.13968 -9.5402,1.60644 -12.93,0.23858 -3.263,-1.73107 -4.8952,-5.545 -4.4545,-9.14156 0.7598,-4.82192 5.1929,-8.45242 9.7466,-9.61806 1.1995,-0.44215 3.8986,-0.13986 3.9879,-1.88618 -0.2316,-3.17243 -3.174,-5.68978 -4.9135,-8.11179 -1.6463,-1.98713 -3.5833,-4.56372 -3.1342,-7.28075 3.8729,-8.10687 15.0388,-9.42913 19.4645,-18.24209 -1.8117,0.34968 -11.7127,0.33315 -13.0614,0.23939 -10.8209,0.5498 -21.4999,1.71412 -32.3142,1.12944 -6.6995,-0.43708 -12.9886,-1.43462 -19.5585,-2.81862 -0.8512,-0.11367 -2.1078,-0.10335 -2.9669,-0.0906 v 0 c -4.8036,0.24569 -9.4591,2.03994 -14.278,2.22314 -3.7587,0.36869 -7.4867,0.12856 -11.2256,0.43931 1.3978,0.81532 2.6895,1.24761 4.0004,1.87411 5.8149,2.22332 12.1733,2.84492 18.3093,1.78766 7.2012,-0.80261 14.8463,0.99107 20.5379,5.57055 2.2066,1.84524 4.0007,4.65435 3.3466,7.63313 -0.3149,4.54684 -5.0012,6.84005 -6.3898,10.93576 -2.6224,6.7952 -0.9726,15.19046 1.0022,21.92934 1.592,0.20613 3.6224,0.31502 5.2599,0.52123 0.7807,-0.6118 0.092,-3.14589 1.1555,-3.64086 1.9663,-1.61119 5.4139,0.49371 4.5052,2.99258 -0.3495,0.79906 -0.8921,1.98257 -1.9069,1.41852 -4.4294,-1.08938 -9.566,-2.00609 -13.666,0.61196 -0.5721,0.49217 -1.949,0.78008 -1.9062,1.66645 1.7039,0.16987 3.4275,-0.71368 5.1785,-0.67386 4.7232,-0.50143 9.2807,1.46108 14.0116,0.88574 1.745,-0.27106 5.1942,-1.0967 6.2877,-2.73257 m 0.087,-16.92537 c -1.177,0.25994 -2.2328,-1.25611 -3.5425,-0.80025 -2.3109,0.70391 -2.1576,3.70991 -1.9115,5.6348 0.787,3.95944 4.2238,6.7724 5.1181,10.72183 0.6852,2.08799 0.3569,4.76745 -1.6485,5.94744 -3.5222,2.40253 -8.0643,1.86189 -12.0765,1.56131 -3.7514,-0.46266 -7.711,-1.35967 -11.4156,-0.22444 -1.7354,0.42917 -1.7199,3.56194 0.248,3.59771 5.1591,0.57672 10.3207,-1.38626 15.4707,-0.34497 3.5793,0.73921 7.2963,0.59265 10.766,-0.57487 1.8581,-0.69663 3.472,1.74965 2.3161,3.24218 -1.6057,1.43639 -4.6428,1.5644 -4.9842,4.13721 -0.388,2.3632 -0.1515,5.21717 -2.3874,6.76652 -1.5791,1.48417 -3.7175,2.15088 -5.8648,1.89926 -5.6272,0.18281 -11.3919,-1.35544 -15.8497,-4.88978 -3.8185,-3.46983 -4.059,-9.05025 -3.9951,-13.86479 -0.042,-4.52692 0.9979,-8.93723 1.9017,-13.34285 0.6304,-2.20475 -1.2212,-4.23666 -3.0597,-5.12992 -3.6678,-1.00708 -7.356,0.90304 -11.0307,0.92683 -2.7277,0.30392 -5.4581,-0.10785 -7.9744,-1.20382 -2.873,-0.92901 -6.2785,-1.11943 -8.9581,0.38344"
         id="path3083-1-0-7-2-8"
         sodipodi:nodetypes="ccccacccccccccccccccccccccccccccccccccccccccccccccccccc" />
      <path
         style="fill:none;stroke:#fffcff;stroke-width:1.448;stroke-linecap:round;stroke-linejoin:miter;stroke-miterlimit:4;stroke-dasharray:none;stroke-opacity:1;paint-order:markers stroke fill"
         d="m 1161.3621,523.51643 c 0.3474,-15.48121 14.4184,-24.95867 26.1311,-24.35003 13.1553,0.68359 24.8152,11.4894 25.0144,23.63377"
         id="path867-7-99-1-6-0"
         sodipodi:nodetypes="csc" />
      <g
         id="g2288-2-8-2-3-4"
         style="fill:none;fill-opacity:1;stroke:#fffcff;stroke-width:1.1;stroke-miterlimit:4;stroke-dasharray:none;stroke-opacity:1"
         transform="translate(1093.6686,390.77166)">
        <g
           id="g2282-8-14-1-6-3"
           style="fill:none;fill-opacity:1;stroke:#fffcff;stroke-width:1.1;stroke-miterlimit:4;stroke-dasharray:none;stroke-opacity:1">
          <circle
             style="opacity:1;fill:none;fill-opacity:1;fill-rule:evenodd;stroke:#fffcff;stroke-width:1.1;stroke-linecap:round;stroke-linejoin:round;stroke-miterlimit:4;stroke-dasharray:none;stroke-opacity:1;paint-order:markers fill stroke"
             id="path847-4-0-3-62-4"
             cx="91.979897"
             cy="141.9543"
             r="73.070663" />
        </g>
        <path
           style="fill:none;fill-opacity:1;stroke:#fffcff;stroke-width:1.1;stroke-linecap:butt;stroke-linejoin:miter;stroke-miterlimit:4;stroke-dasharray:none;stroke-opacity:1"
           d="M 76.58238,76.177181 Z"
           id="path855-0-6-9-3-6" />
        <circle
           style="opacity:1;fill:none;fill-opacity:1;fill-rule:evenodd;stroke:#fffcff;stroke-width:1.1;stroke-linecap:round;stroke-linejoin:round;stroke-miterlimit:4;stroke-dasharray:none;stroke-opacity:1;paint-order:markers fill stroke"
           id="path847-0-1-2-4-82-6"
           cx="91.979897"
           cy="141.9543"
           r="73.070663" />
      </g>
      <path
         style="fill:none;stroke:#fffcff;stroke-width:1.1;stroke-linecap:butt;stroke-linejoin:miter;stroke-miterlimit:4;stroke-dasharray:none;stroke-opacity:1"
         d="m 1161.4841,523.84343 c 0.2815,-11.61938 8.9283,-22.75377 23.257,-23.99716 2.1065,-0.0806 4.0666,-0.0967 5.8503,0.21291 20.7306,3.59778 21.7208,23.23184 21.3741,23.08325"
         id="path2502"
         sodipodi:nodetypes="ccsc" />
      <path
         style="fill:none;stroke:#fffcff;stroke-width:1.1;stroke-linecap:butt;stroke-linejoin:miter;stroke-miterlimit:4;stroke-dasharray:none;stroke-opacity:1"
         d="m 1199.378,502.6564 14.8274,-36.8409"
         id="path2504"
         sodipodi:nodetypes="cc" />
      <path
         style="fill:none;stroke:#fffcff;stroke-width:1.1;stroke-linecap:butt;stroke-linejoin:miter;stroke-miterlimit:4;stroke-dasharray:none;stroke-opacity:1"
         d="m 1193.8425,460.78727 -4.3711,38.84977"
         id="path2506" />
      <path
         style="fill:none;stroke:#fffcff;stroke-width:1.1;stroke-linecap:butt;stroke-linejoin:miter;stroke-miterlimit:4;stroke-dasharray:none;stroke-opacity:1"
         d="m 1172.9812,460.74758 6.3597,40.37526"
         id="path2508" />
      <path
         style="fill:none;stroke:#fffcff;stroke-width:1.1;stroke-linecap:butt;stroke-linejoin:miter;stroke-miterlimit:4;stroke-dasharray:none;stroke-opacity:1"
         d="m 1153.426,467.68608 18.0806,37.62403"
         id="path2510" />
      <path
         style="fill:none;stroke:#fffcff;stroke-width:1.1;stroke-linecap:butt;stroke-linejoin:miter;stroke-miterlimit:4;stroke-dasharray:none;stroke-opacity:1"
         d="m 1136.2048,479.30501 28.8183,31.40802"
         id="path2512" />
      <path
         style="fill:none;stroke:#fffcff;stroke-width:1.1;stroke-linecap:butt;stroke-linejoin:miter;stroke-miterlimit:4;stroke-dasharray:none;stroke-opacity:1"
         d="m 1123.6405,494.59462 38.6812,23.81757"
         id="path2514" />
      <path
         style="fill:none;stroke:#fffcff;stroke-width:1.1;stroke-linecap:butt;stroke-linejoin:miter;stroke-miterlimit:4;stroke-dasharray:none;stroke-opacity:1"
         d="m 1205.2319,507.08104 26.7382,-30.50018"
         id="path2516"
         sodipodi:nodetypes="cc" />
      <path
         style="fill:none;stroke:#fffcff;stroke-width:1.1;stroke-linecap:butt;stroke-linejoin:miter;stroke-miterlimit:4;stroke-dasharray:none;stroke-opacity:1"
         d="m 1210.7405,515.65478 34.848,-23.99734"
         id="path2518"
         sodipodi:nodetypes="cc" />
      <path
         style="fill:none;stroke:#fffcff;stroke-width:1.1;stroke-linecap:butt;stroke-linejoin:miter;stroke-miterlimit:4;stroke-dasharray:none;stroke-opacity:1"
         d="m 1223.9243,520.71079 30.749,-10.21394"
         id="path2520"
         sodipodi:nodetypes="cc" />
      <path
         style="fill:none;stroke:#fffcff;stroke-width:1.1;stroke-linecap:butt;stroke-linejoin:miter;stroke-miterlimit:4;stroke-dasharray:none;stroke-opacity:1"
         d="m 1144.9285,521.56447 -29.3997,-8.09678"
         id="path2522" />
      <path
         style="fill:none;stroke:#fffcff;stroke-width:1.1;stroke-linecap:butt;stroke-linejoin:miter;stroke-miterlimit:4;stroke-dasharray:none;stroke-opacity:1"
         d="m 1118.9006,524.3547 -5.8131,-0.60713"
         id="path2524"
         sodipodi:nodetypes="cc" />
      <path
         style="fill:none;stroke:#fffcff;stroke-width:1.1;stroke-linecap:round;stroke-linejoin:miter;stroke-miterlimit:4;stroke-dasharray:none;stroke-opacity:1"
         d="m 1211.3494,523.65503 c 0,0 8.1319,-2.63507 12.3494,-2.79329 1.5117,-0.0567 3.3774,-0.0522 4.4892,0.66677 3.9867,2.57825 5.7761,4.86655 9.3302,5.50786 3.5759,0.64525 7.1206,-1.51056 10.7321,-1.9112 4.5902,-0.5092 10.8604,3.42988 10.2776,3.76289"
         id="path2526"
         sodipodi:nodetypes="casasc" />
    </g>
  </g>
</svg>
